:SAMPLES-PER-SECOND 30
:FULLY-SPECIFIED
:DEGREES
1
root  11.2145 38.9694 6.69925 -171.696 -72.0683 166.786
RightUpLeg  0.898555 -10.9861 -12.0432
RightLeg  47.9706 12.0553 13.6671
RightFoot  0.52532 -2.70028 25.5641
RightToes  -5.8209e-011 0 -3.6325e-017
Spine  5.90338 1.9298 -2.09128
Spine1  8.63352 3.51716 -8.79408
HEad  -19.6934 -0.61474 -5.13659
LeftShoulder1  -0.0580847 3.66199 -30.4706
LeftArm  -5.0422 9.02078 -40.323
LeftForeArm  22.1907 -10.7452 -7.27882
LeftHand  0.0221245 6.94424 4.01063
RightShoulder  -0.399008 -4.66009 27.4954
RightArm  11.4846 0.905904 50.6786
RightForeArm  12.2473 7.01731 6.78298
RightHand  -0.349861 4.16815 -4.51902
LeftUpLeg  -11.249 6.41767 -4.04592
LeftLeg  14.6064 13.0049 0.51506
LeftFoot  1.57919 -0.911475 7.94673
LeftToes  -8.31281e-010 4.41007e-011 3.74621e-011
2
root  11.0073 38.9394 6.61614 -172.33 -71.687 167.301
RightUpLeg  -1.56571 -11.3053 -12.4087
RightLeg  51.1682 10.5782 13.4251
RightFoot  1.84176 -3.04852 26.057
RightToes  -5.8209e-011 0 -3.6325e-017
Spine  6.74682 1.7088 -2.65746
Spine1  8.93869 3.17143 -8.78392
HEad  -19.9836 -0.116726 -5.79528
LeftShoulder1  0.0328657 3.41391 -30.1598
LeftArm  -4.1521 6.98271 -40.5132
LeftForeArm  21.5268 -11.0754 -7.47703
LeftHand  0.058441 8.13609 4.09627
RightShoulder  -0.365588 -4.57762 26.9995
RightArm  9.88526 2.24192 51.7901
RightForeArm  10.8202 8.33817 6.16493
RightHand  -0.340495 3.90244 -4.50915
LeftUpLeg  -11.2278 6.65374 -3.91063
LeftLeg  15.6814 13.1495 0.968852
LeftFoot  0.748755 -0.812492 7.61847
LeftToes  -8.31281e-010 4.41007e-011 3.74621e-011
3
root  10.721 39.0123 6.46175 -174.234 -71.6566 169.406
RightUpLeg  -4.278 -11.6157 -11.818
RightLeg  52.8079 7.94591 10.7431
RightFoot  -0.078844 -2.26296 22.6023
RightToes  -5.8209e-011 0 -3.6325e-017
Spine  7.35106 1.37583 -2.72559
Spine1  8.86385 2.72548 -8.50549
HEad  -19.6763 0.65992 -6.11733
LeftShoulder1  -0.00635299 3.52087 -29.7041
LeftArm  -3.73953 4.60777 -40.9675
LeftForeArm  21.9381 -12.1061 -7.19188
LeftHand  0.0521521 7.96952 4.0322
RightShoulder  -0.348276 -4.52939 26.8262
RightArm  9.3771 3.56264 52.6559
RightForeArm  7.27008 10.2578 5.81567
RightHand  -0.42273 4.2841 -5.35457
LeftUpLeg  -10.8208 7.17361 -3.05146
LeftLeg  15.792 12.7147 0.861023
LeftFoot  0.215805 -0.757297 7.4597
LeftToes  -8.31281e-010 4.41007e-011 3.74621e-011
4
root  10.419 39.1596 6.27313 -176.169 -71.8982 171.649
RightUpLeg  -6.2174 -11.9141 -11.1402
RightLeg  51.9742 5.11998 6.65655
RightFoot  -2.13671 -1.50245 18.4209
RightToes  -5.8209e-011 0 -3.6325e-017
Spine  7.61925 1.01862 -2.81711
Spine1  8.65461 2.16129 -7.49388
HEad  -18.6382 1.42015 -6.18766
LeftShoulder1  0.0765664 3.2876 -29.2123
LeftArm  -3.48751 3.18392 -41.4254
LeftForeArm  20.5308 -13.7441 -6.56431
LeftHand  0.0348074 7.30584 4.15637
RightShoulder  -0.247836 -4.24528 26.0356
RightArm  10.4787 4.20199 53.6722
RightForeArm  4.94124 13.1419 5.52136
RightHand  -0.436608 5.06696 -5.13874
LeftUpLeg  -10.0701 7.32537 -2.17855
LeftLeg  15.0158 12.2822 0.762718
LeftFoot  0.11987 -0.72844 7.2411
LeftToes  -8.31281e-010 4.41007e-011 3.74621e-011
5
root  10.1439 39.2712 6.06618 -177.1 -72.0436 173.056
RightUpLeg  -7.87333 -11.5032 -10.6303
RightLeg  49.1804 2.7503 3.08272
RightFoot  -3.05676 -1.06615 14.3297
RightToes  -5.8209e-011 0 -3.6325e-017
Spine  7.52854 0.833371 -2.67725
Spine1  8.6373 1.9831 -7.15935
HEad  -17.9456 2.22352 -6.3693
LeftShoulder1  0.0418775 3.38422 -28.866
LeftArm  -2.97813 1.50491 -41.7997
LeftForeArm  18.7787 -15.9096 -5.73025
LeftHand  0.0381717 7.23178 4.59958
RightShoulder  -0.234808 -4.21016 25.7739
RightArm  13.1644 4.59174 54.1843
RightForeArm  2.5588 16.6414 5.18896
RightHand  -0.521941 6.02434 -5.62859
LeftUpLeg  -9.57395 7.25175 -1.57402
LeftLeg  14.2264 12.0988 0.710059
LeftFoot  0.0022197 -0.686447 6.90272
LeftToes  -8.31281e-010 4.41007e-011 3.74621e-011
6
root  9.86598 39.3654 5.82492 -177.328 -72.0721 173.684
RightUpLeg  -8.69905 -10.019 -10.4606
RightLeg  44.3307 1.36495 1.12641
RightFoot  -5.55097 -0.657863 12.2258
RightToes  -5.8209e-011 0 -3.6325e-017
Spine  7.20503 0.699951 -2.55743
Spine1  8.77225 1.93629 -7.10238
HEad  -16.7656 2.77885 -6.51957
LeftShoulder1  0.0248436 3.43204 -28.6985
LeftArm  -1.17217 0.539687 -41.453
LeftForeArm  15.02 -19.2067 -4.82852
LeftHand  0.0607951 6.99809 6.4503
RightShoulder  -0.2229 -4.1729 25.78
RightArm  15.3927 4.89303 54.537
RightForeArm  3.16608 20.0451 4.7708
RightHand  -0.559348 5.88684 -6.08196
LeftUpLeg  -8.90627 7.28582 -1.11744
LeftLeg  13.2615 11.9933 0.533041
LeftFoot  -0.155177 -0.641149 6.54837
LeftToes  -8.31281e-010 4.41007e-011 3.74621e-011
7
root  9.60623 39.4471 5.55723 -176.864 -72.2539 173.685
RightUpLeg  -8.73331 -7.39786 -10.3646
RightLeg  37.3084 0.835642 0.411658
RightFoot  -6.90505 -0.442559 10.241
RightToes  -5.8209e-011 0 -3.6325e-017
Spine  6.93268 0.619857 -2.59044
Spine1  8.63654 1.93097 -7.02674
HEad  -16.6502 3.64163 -6.56378
LeftShoulder1  0.0767406 3.28147 -28.3552
LeftArm  -0.927345 0.234543 -41.1274
LeftForeArm  13.9404 -22.9073 -4.2713
LeftHand  0.0574181 6.85909 6.8177
RightShoulder  -0.241391 -4.21997 26.2367
RightArm  15.6831 4.78978 54.4555
RightForeArm  5.19379 23.1423 4.6837
RightHand  -0.569971 5.3307 -6.47631
LeftUpLeg  -8.3248 7.2823 -0.849327
LeftLeg  12.2061 11.7625 0.342185
LeftFoot  -0.249021 -0.589757 6.08406
LeftToes  -8.31281e-010 4.41007e-011 3.74621e-011
8
root  9.38722 39.5104 5.26668 -175.901 -72.9231 173.261
RightUpLeg  -8.07421 -3.51311 -10.2823
RightLeg  28.5801 0.762724 0.254444
RightFoot  -7.23979 -0.372408 9.02115
RightToes  -5.8209e-011 0 -3.6325e-017
Spine  6.65843 0.39512 -2.94368
Spine1  8.63476 1.61003 -6.36728
HEad  -17.1297 4.85925 -6.65737
LeftShoulder1  0.0433212 3.37966 -28.6942
LeftArm  -3.14237 -0.380643 -40.4387
LeftForeArm  15.4834 -25.9475 -4.72476
LeftHand  0.0149531 6.03748 7.01936
RightShoulder  -0.294941 -4.37829 26.4912
RightArm  15.6807 5.00997 54.4733
RightForeArm  6.48124 24.9399 4.99849
RightHand  -0.564891 6.00318 -6.06584
LeftUpLeg  -7.99182 7.20482 -0.711344
LeftLeg  11.1624 11.1594 0.123273
LeftFoot  -0.164263 -0.564054 5.76841
LeftToes  -8.31281e-010 4.41007e-011 3.74621e-011
9
root  9.16629 39.5631 4.95441 -174.64 -73.9906 172.214
RightUpLeg  -6.45637 1.37904 -10.2368
RightLeg  19.0606 0.729314 -0.0461734
RightFoot  -7.95766 -0.309008 8.46516
RightToes  -5.8209e-011 0 -3.6325e-017
Spine  6.40234 0.0719303 -2.56758
Spine1  8.98844 1.46373 -6.69408
HEad  -17.3543 5.09539 -6.94052
LeftShoulder1  0.0449345 3.37345 -28.4799
LeftArm  -4.49676 -1.11306 -40.1679
LeftForeArm  17.0938 -28.443 -5.22056
LeftHand  -0.00868745 5.66265 6.49665
RightShoulder  -0.297344 -4.38582 26.482
RightArm  15.437 4.71559 55.0093
RightForeArm  5.82705 25.7923 5.22917
RightHand  -0.661685 6.44986 -6.81995
LeftUpLeg  -7.33739 7.11369 -0.648322
LeftLeg  10.0981 10.2725 -0.117971
LeftFoot  -0.167391 -0.511485 5.2363
LeftToes  -8.31281e-010 4.41007e-011 3.74621e-011
10
root  8.94395 39.6704 4.62433 -173.012 -75.5143 170.851
RightUpLeg  -5.36215 1.80388 -9.75933
RightLeg  12.2565 2.87518 -0.378077
RightFoot  -7.12129 -0.229578 5.44965
RightToes  -5.8209e-011 0 -3.6325e-017
Spine  6.15214 -0.242389 -1.9044
Spine1  9.01715 1.23937 -6.59946
HEad  -17.3155 5.11993 -7.30181
LeftShoulder1  0.113025 3.1721 -27.8719
LeftArm  -5.21696 -1.45641 -40.4852
LeftForeArm  18.0803 -30.0814 -5.54938
LeftHand  -0.0272682 5.28819 6.85335
RightShoulder  -0.284494 -4.34353 26.59
RightArm  15.7331 4.37737 55.1916
RightForeArm  5.38001 25.4774 5.18041
RightHand  -0.62907 6.77342 -6.31746
LeftUpLeg  -6.39553 6.81811 -0.574498
LeftLeg  8.24724 8.96572 -0.483851
LeftFoot  0.350328 -0.494893 4.81234
LeftToes  -8.31281e-010 4.41007e-011 3.74621e-011
11
root  8.7434 39.7851 4.28446 -171.224 -76.8019 169.324
RightUpLeg  -5.57988 -1.2986 -9.15615
RightLeg  11.722 6.00708 -0.33349
RightFoot  -4.43447 -0.196957 2.7184
RightToes  -5.8209e-011 0 -3.6325e-017
Spine  5.68534 -0.220489 -0.915806
Spine1  9.49822 1.33485 -6.34847
HEad  -17.5833 5.21806 -7.75547
LeftShoulder1  0.100556 3.20797 -27.8517
LeftArm  -5.16529 -2.56425 -40.9146
LeftForeArm  18.5224 -30.4468 -5.61323
LeftHand  -0.0621346 4.64901 6.76661
RightShoulder  -0.33293 -4.48822 26.6943
RightArm  17.0645 4.27354 55.119
RightForeArm  5.41338 24.5991 4.98017
RightHand  -0.494623 5.94098 -5.39107
LeftUpLeg  -5.46398 6.59634 -0.399481
LeftLeg  6.39137 7.82646 -0.846163
LeftFoot  1.0312 -0.489735 4.45181
LeftToes  -8.31281e-010 4.41007e-011 3.74621e-011
12
root  8.58513 39.7307 3.87356 -168.563 -77.5743 166.733
RightUpLeg  -5.44995 0.532534 -9.31718
RightLeg  12.8917 3.02419 -0.392507
RightFoot  -6.31852 -0.233048 4.29141
RightToes  -5.8209e-011 0 -3.6325e-017
Spine  5.68836 -0.0510213 -0.349981
Spine1  9.60492 1.63551 -6.89523
HEad  -16.8948 4.79326 -8.34953
LeftShoulder1  0.0744678 3.28918 -28.4797
LeftArm  -4.77043 -3.07164 -40.8118
LeftForeArm  18.6309 -30.7605 -5.68287
LeftHand  -0.057731 4.73394 6.80742
RightShoulder  -0.268403 -4.29557 26.535
RightArm  20.0082 4.58516 55.1822
RightForeArm  3.15664 22.1132 4.76662
RightHand  -0.554105 6.39055 -5.79885
LeftUpLeg  -5.66206 6.47807 -0.421111
LeftLeg  7.13711 7.00497 -0.562886
LeftFoot  0.571603 -0.395943 3.76452
LeftToes  -8.31281e-010 4.41007e-011 3.74621e-011
13
root  8.40734 39.7841 3.50709 -167.593 -78.3043 165.777
RightUpLeg  -4.77923 -1.83467 -8.9722
RightLeg  12.5251 4.38955 -0.132565
RightFoot  -5.85984 -0.217976 3.71245
RightToes  -5.8209e-011 0 -3.6325e-017
Spine  5.54006 0.00537554 1.0197
Spine1  9.85126 1.88372 -7.35808
HEad  -16.654 4.46183 -8.40842
LeftShoulder1  0.0391488 3.38967 -28.1436
LeftArm  -4.36561 -2.43868 -41.5769
LeftForeArm  18.7452 -31.0477 -5.74594
LeftHand  -0.0243087 5.34413 6.73548
RightShoulder  -0.224538 -4.17044 26.1408
RightArm  21.6459 4.8988 55.5173
RightForeArm  3.85533 19.1978 5.22082
RightHand  -0.516472 5.21055 -5.94688
LeftUpLeg  -5.01219 6.37632 -0.0814457
LeftLeg  6.4169 6.32634 -0.422872
LeftFoot  0.784558 -0.338079 3.13626
LeftToes  -8.31281e-010 4.41007e-011 3.74621e-011
14
root  8.20895 39.8083 3.11875 -165.539 -79.0531 163.472
RightUpLeg  -4.16515 -2.78687 -8.8969
RightLeg  13.0463 4.38264 0.134473
RightFoot  -6.15327 -0.169019 2.8056
RightToes  -5.8209e-011 0 -3.6325e-017
Spine  5.48105 0.118333 1.70024
Spine1  10.1469 2.00268 -7.22175
HEad  -16.3213 4.8724 -8.4702
LeftShoulder1  0.0566869 3.34055 -28.5402
LeftArm  -3.10707 -1.54063 -41.5986
LeftForeArm  18.2896 -30.7904 -5.70924
LeftHand  0.00401541 5.86103 6.93904
RightShoulder  -0.27319 -4.316 26.3189
RightArm  21.8034 5.39455 54.9176
RightForeArm  5.80966 16.0863 6.34284
RightHand  -0.446825 5.03649 -5.27564
LeftUpLeg  -4.06397 6.35985 0.143384
LeftLeg  5.69903 5.42406 -0.405764
LeftFoot  0.891117 -0.280748 2.5726
LeftToes  -8.31281e-010 4.41007e-011 3.74621e-011
15
root  7.99183 39.8521 2.73363 -162.897 -79.7656 160.734
RightUpLeg  -3.38112 -4.46457 -8.82216
RightLeg  12.9647 5.08522 0.314705
RightFoot  -6.52793 -0.132268 2.09145
RightToes  -5.8209e-011 0 -3.6325e-017
Spine  5.26214 0.17088 2.15326
Spine1  10.0624 1.95921 -6.74682
HEad  -15.8684 5.49864 -8.32938
LeftShoulder1  0.0232972 3.43661 -28.887
LeftArm  -0.912184 -0.224943 -41.5197
LeftForeArm  17.01 -29.7022 -5.52106
LeftHand  -0.0102734 5.59636 6.96984
RightShoulder  -0.295995 -4.3808 26.5241
RightArm  20.1537 4.91417 54.1825
RightForeArm  9.00212 13.6498 7.16596
RightHand  -0.404178 4.94188 -4.82377
LeftUpLeg  -3.04955 6.20883 0.309421
LeftLeg  4.53311 4.64755 -0.340931
LeftFoot  1.13611 -0.213321 1.8824
LeftToes  -8.31281e-010 4.41007e-011 3.74621e-011
